{
  "accessors": [
    {
      "bufferView": 2,
      "componentType": 5126,
      "count": 8932,
      "max": [
        0.1689338982105255,
        1.0925824642181396,
        0.5920431613922119
      ],
      "min": [
        -0.16840760409832,
        0.00010176134674111381,
        -0.5908076167106628
      ],
      "type": "VEC3"
    },
    {
      "bufferView": 2,
      "byteOffset": 107184,
      "componentType": 5126,
      "count": 8932,
      "max": [
        0.9999632239341736,
        0.999454915523529,
        0.9996875524520874
      ],
      "min": [
        -0.9998044967651367,
        -0.9982039928436279,
        -0.9997925162315369
      ],
      "type": "VEC3"
    },
    {
      "bufferView": 3,
      "componentType": 5126,
      "count": 8932,
      "max": [
        0.9998029470443726,
        0.999974250793457,
        0.9999950528144836,
        1.0
      ],
      "min": [
        -0.999225914478302,
        -0.9999771118164063,
        -0.9999880790710449,
        -1.0
      ],
      "type": "VEC4"
    },
    {
      "bufferView": 1,
      "componentType": 5126,
      "count": 8932,
      "max": [
        0.9983141422271729,
        0.9935824871063232
      ],
      "min": [
        0.000974658876657486,
        0.000974658876657486
      ],
      "type": "VEC2"
    },
    {
      "bufferView": 1,
      "byteOffset": 71456,
      "componentType": 5126,
      "count": 8932,
      "max": [
        0.9983141422271729,
        0.9935824871063232
      ],
      "min": [
        0.000974658876657486,
        0.000974658876657486
      ],
      "type": "VEC2"
    },
    {
      "bufferView": 0,
      "componentType": 5125,
      "count": 30342,
      "type": "SCALAR"
    }
  ],
  "asset": {
    "extras": {
      "author": "David Wigforss (https://sketchfab.com/dwigfor)",
      "license": "CC-BY-NC-4.0 (http://creativecommons.org/licenses/by-nc/4.0/)",
      "source": "https://sketchfab.com/3d-models/dog-anatomy-1-3cc3b755813446a5adbd8c9faa37f30d",
      "title": "Dog Anatomy 1"
    },
    "generator": "Sketchfab-12.66.0",
    "version": "2.0"
  },
  "bufferViews": [
    {
      "buffer": 0,
      "byteLength": 121368,
      "name": "floatBufferViews",
      "target": 34963
    },
    {
      "buffer": 0,
      "byteLength": 142912,
      "byteOffset": 121368,
      "byteStride": 8,
      "name": "floatBufferViews",
      "target": 34962
    },
    {
      "buffer": 0,
      "byteLength": 214368,
      "byteOffset": 264280,
      "byteStride": 12,
      "name": "floatBufferViews",
      "target": 34962
    },
    {
      "buffer": 0,
      "byteLength": 142912,
      "byteOffset": 478648,
      "byteStride": 16,
      "name": "floatBufferViews",
      "target": 34962
    }
  ],
  "buffers": [
    {
      "byteLength": 621560,
      "uri": "scene.bin"
    }
  ],
  "images": [
    {
      "uri": "textures/MAT_DogAnatomy1_baseColor.jpeg"
    },
    {
      "uri": "textures/MAT_DogAnatomy1_normal.png"
    }
  ],
  "materials": [
    {
      "doubleSided": true,
      "name": "MAT_DogAnatomy1",
      "normalTexture": {
        "index": 1
      },
      "pbrMetallicRoughness": {
        "baseColorTexture": {
          "index": 0
        },
        "metallicFactor": 0.0,
        "roughnessFactor": 0.9577051495
      }
    }
  ],
  "meshes": [
    {
      "name": "geo1_MAT_DogAnatomy1_0",
      "primitives": [
        {
          "attributes": {
            "NORMAL": 1,
            "POSITION": 0,
            "TANGENT": 2,
            "TEXCOORD_0": 3,
            "TEXCOORD_1": 4
          },
          "indices": 5,
          "material": 0,
          "mode": 4
        }
      ]
    }
  ],
  "nodes": [
    {
      "children": [
        1
      ],
      "matrix": [
        1.0,
        0.0,
        0.0,
        0.0,
        0.0,
        2.220446049250313e-16,
        -1.0,
        0.0,
        0.0,
        1.0,
        2.220446049250313e-16,
        0.0,
        0.0,
        0.0,
        0.0,
        1.0
      ],
      "name": "Sketchfab_model"
    },
    {
      "children": [
        2
      ],
      "matrix": [
        1.0,
        0.0,
        0.0,
        0.0,
        0.0,
        0.0,
        1.0,
        0.0,
        0.0,
        -1.0,
        0.0,
        0.0,
        0.0,
        0.0,
        0.0,
        1.0
      ],
      "name": "mesh.fbx"
    },
    {
      "children": [
        3
      ],
      "name": "RootNode"
    },
    {
      "children": [
        4
      ],
      "name": "geo1"
    },
    {
      "mesh": 0,
      "name": "geo1_MAT_DogAnatomy1_0"
    }
  ],
  "samplers": [
    {
      "magFilter": 9729,
      "minFilter": 9987,
      "wrapS": 10497,
      "wrapT": 10497
    }
  ],
  "scene": 0,
  "scenes": [
    {
      "name": "Sketchfab_Scene",
      "nodes": [
        0
      ]
    }
  ],
  "textures": [
    {
      "sampler": 0,
      "source": 0
    },
    {
      "sampler": 0,
      "source": 1
    }
  ]
}
